<svg version="1.1" xmlns="http://www.w3.org/2000/svg" xmlns:xlink="http://www.w3.org/1999/xlink">
<symbol id="icon-about" viewBox="0 0 16 16">
<title>about</title>
<path d="M13.598 11.955c-0.232-1.67-0.911-3.152-2.429-3.357-0.786 0.857-1.92 1.402-3.17 1.402s-2.384-0.545-3.17-1.402c-1.518 0.205-2.196 1.688-2.429 3.357 1.241 1.75 3.286 2.902 5.598 2.902s4.357-1.152 5.598-2.902zM11.429 5.714c0-1.893-1.536-3.429-3.429-3.429s-3.429 1.536-3.429 3.429 1.536 3.429 3.429 3.429 3.429-1.536 3.429-3.429zM16 8c0 4.402-3.571 8-8 8-4.42 0-8-3.589-8-8 0-4.42 3.58-8 8-8s8 3.58 8 8z"></path>
</symbol>
</svg>
