<svg version="1.1" xmlns="http://www.w3.org/2000/svg" xmlns:xlink="http://www.w3.org/1999/xlink">
<symbol id="icon-bitbucket" viewBox="0 0 16 16">
<title>bitbucket</title>
<path d="M8 0c-3.813 0-6.945 1.020-6.945 2.315 0 0.34 0.817 5.174 1.158 7.080 0.136 0.886 2.383 2.11 5.787 2.11s5.583-1.224 5.787-2.11c0.34-1.906 1.158-6.74 1.158-7.080-0.068-1.295-3.132-2.315-6.945-2.315zM8 9.94c-1.226 0-2.18-0.953-2.18-2.178s0.954-2.18 2.18-2.18 2.18 0.954 2.18 2.18c0 1.158-0.955 2.178-2.18 2.178zM8 2.996c-2.45 0-4.426-0.41-4.426-0.953 0-0.545 1.975-0.954 4.426-0.954 2.45 0 4.426 0.4 4.426 0.95 0 0.54-1.975 0.95-4.426 0.95z"></path>
<path d="M12.97 11.234c-0.136 0-0.204 0.068-0.204 0.068s-1.702 1.362-4.766 1.362-4.766-1.362-4.766-1.362-0.136-0.068-0.204-0.068c-0.136 0-0.273 0.068-0.273 0.272v0.068c0.273 1.43 0.477 2.452 0.477 2.588 0.204 1.020 2.246 1.838 4.698 1.838 2.45 0 4.494-0.817 4.698-1.838 0-0.136 0.204-1.158 0.476-2.588v-0.068c0.068-0.136 0-0.272-0.136-0.272z"></path>
<path d="M9.089 7.694c0 0.601-0.488 1.089-1.089 1.089s-1.089-0.488-1.089-1.089c0-0.601 0.488-1.089 1.089-1.089s1.089 0.488 1.089 1.089z"></path>
</symbol>
</svg>
