<svg version="1.1" xmlns="http://www.w3.org/2000/svg" xmlns:xlink="http://www.w3.org/1999/xlink">
<symbol id="icon-bitcoin" viewBox="0 0 16 16">
<title>bitcoin</title>
<path d="M15.76 9.936c-1.068 4.286-5.41 6.894-9.696 5.825-4.284-1.061-6.894-5.411-5.824-9.691 1.068-4.29 5.41-6.9 9.694-5.832 4.287 1.070 6.895 5.41 5.827 9.7zM11.527 6.86c0.16-1.064-0.65-1.637-1.76-2.020l0.36-1.44-0.878-0.22-0.35 1.405c-0.23-0.058-0.47-0.112-0.71-0.166l0.351-1.419-0.88-0.22-0.36 1.443c-0.19-0.045-0.377-0.088-0.56-0.133l-1.21-0.3-0.233 0.938s0.65 0.15 0.637 0.158c0.357 0.090 0.42 0.324 0.41 0.51l-0.985 3.95c-0.050 0.11-0.16 0.27-0.41 0.21 0.010 0.013-0.64-0.16-0.64-0.16l-0.44 1.006 1.14 0.284 0.62 0.162-0.36 1.46 0.88 0.217 0.36-1.443c0.24 0.065 0.47 0.125 0.7 0.182l-0.339 1.436 0.88 0.22 0.363-1.457c1.497 0.283 2.622 0.17 3.096-1.185 0.38-1.090-0.020-1.72-0.81-2.13 0.57-0.13 1-0.508 1.12-1.288zM9.52 9.673c-0.27 1.090-2.106 0.5-2.7 0.353l0.48-1.933c0.596 0.15 2.504 0.443 2.22 1.58zM9.792 6.843c-0.247 0.993-1.775 0.49-2.27 0.366l0.436-1.76c0.496 0.12 2.092 0.35 1.834 1.39z"></path>
</symbol>
</svg>
