<svg xmlns="http://www.w3.org/2000/svg" xmlns:xlink="http://www.w3.org/1999/xlink">
<symbol id="icon-discord" viewBox="0 0 16 16">
<title>discord</title>
<path d="M13.487-0.002c0.936 0 1.693 0.758 1.738 1.65v14.35l-1.783-1.515-0.98-0.892-1.070-0.93 0.446 1.47h-9.36c-0.935 0-1.693-0.71-1.693-1.65v-10.831c0-0.89 0.758-1.65 1.695-1.65h11zM9.407 3.786h-0.020l-0.134 0.134c1.382 0.4 2.050 1.025 2.050 1.025-0.89-0.446-1.694-0.668-2.496-0.758-0.58-0.090-1.16-0.044-1.65 0h-0.132c-0.312 0-0.98 0.134-1.872 0.49-0.312 0.134-0.49 0.223-0.49 0.223s0.668-0.668 2.14-1.025l-0.090-0.090s-1.115-0.043-2.318 0.848c0 0-1.203 2.095-1.203 4.68 0 0 0.668 1.158 2.495 1.203 0 0 0.268-0.356 0.535-0.668-1.025-0.312-1.426-0.936-1.426-0.936s0.090 0.044 0.223 0.133h0.040c0.020 0 0.030 0.010 0.040 0.020v0.005c0.010 0.010 0.020 0.020 0.040 0.020 0.22 0.090 0.44 0.178 0.62 0.267 0.31 0.134 0.71 0.268 1.2 0.357 0.62 0.090 1.33 0.134 2.14 0 0.4-0.090 0.8-0.178 1.2-0.357 0.26-0.133 0.58-0.267 0.93-0.49 0 0-0.4 0.624-1.47 0.936 0.22 0.312 0.53 0.668 0.53 0.668 1.83-0.040 2.54-1.2 2.58-1.15 0-2.58-1.21-4.68-1.21-4.68-1.090-0.81-2.11-0.84-2.29-0.84zM9.52 6.728c0.468 0 0.847 0.4 0.847 0.89 0 0.493-0.38 0.892-0.847 0.892s-0.846-0.4-0.846-0.89c0-0.493 0.38-0.892 0.846-0.892zM6.49 6.728c0.467 0 0.846 0.4 0.846 0.89 0 0.493-0.38 0.892-0.846 0.892-0.468 0-0.847-0.4-0.847-0.89 0-0.493 0.38-0.892 0.847-0.892z"></path>
</symbol>
</svg>
