<svg xmlns="http://www.w3.org/2000/svg" xmlns:xlink="http://www.w3.org/1999/xlink">
<symbol id="icon-docker" viewBox="0 0 16 16">
<title>docker</title>
<path d="M3.212 11.518c-0.456 0-0.87-0.373-0.87-0.828s0.373-0.828 0.87-0.828c0.496 0 0.87 0.373 0.87 0.828s-0.415 0.828-0.87 0.828zM13.889 7.008c-0.090-0.663-0.5-1.2-1.040-1.615l-0.21-0.166-0.17 0.207c-0.33 0.373-0.46 1.035-0.42 1.53 0.040 0.374 0.16 0.746 0.37 1.036-0.17 0.083-0.38 0.166-0.54 0.248-0.38 0.124-0.75 0.166-1.12 0.166h-10.699l-0.040 0.248c-0.080 0.787 0.040 1.614 0.375 2.36l0.166 0.29v0.040c1 1.656 2.78 2.4 4.72 2.4 3.73 0 6.79-1.613 8.24-5.090 0.95 0.042 1.91-0.207 2.36-1.117l0.12-0.207-0.2-0.124c-0.54-0.33-1.28-0.373-1.9-0.207zM8.549 6.345h-1.619v1.615h1.62v-1.616zM8.549 4.317h-1.619v1.613h1.62v-1.612zM8.549 2.247h-1.619v1.613h1.62v-1.612zM10.529 6.345h-1.609v1.615h1.614v-1.616zM4.529 6.345h-1.609v1.615h1.614v-1.616zM6.549 6.345h-1.6v1.615h1.61v-1.616zM2.529 6.345h-1.599v1.615h1.62v-1.616zM6.549 4.317h-1.6v1.613h1.61v-1.612zM4.519 4.317h-1.6v1.613h1.61v-1.612z"></path>
</symbol>
</svg>
