<svg version="1.1" xmlns="http://www.w3.org/2000/svg" xmlns:xlink="http://www.w3.org/1999/xlink">
<symbol id="icon-dribbble" viewBox="0 0 16 16">
<title>email</title>
<path id="icon-email" d="M14.5 2h-13c-0.829 0-1.5 0.671-1.5 1.5v9c0 0.828 0.671 1.5 1.5 1.5h13c0.829 0 1.5-0.672 1.5-1.5v-9c0-0.829-0.671-1.5-1.5-1.5zM1.371 12.995l-0.365-0.366 4.125-4.124 0.365 0.366-4.125 4.124zM14.63 12.995l-4.125-4.124 0.366-0.366 4.125 4.124-0.366 0.366zM8.5 9.662v0.338h-1v-0.338l-6.498-6.025 0.636-0.636 6.362 5.899 6.363-5.899 0.636 0.636-6.498 6.025z"></path>
</symbol>
</svg>
