<svg xmlns="http://www.w3.org/2000/svg" xmlns:xlink="http://www.w3.org/1999/xlink">
<symbol id="icon-facebook" viewBox="0 0 16 16">
<title>facebook</title>
<path d="M15.117 0h-14.234c-0.488 0-0.883 0.395-0.883 0.883v14.234c0 0.488 0.395 0.883 0.883 0.883h7.663v-6.196h-2.086v-2.414h2.086v-1.783c0-2.066 1.262-3.19 3.106-3.19 0.883 0 1.642 0.064 1.863 0.094v2.16h-1.28c-1 0-1.195 0.48-1.195 1.18v1.54h2.39l-0.31 2.42h-2.080v6.189h4.077c0.488 0 0.883-0.395 0.883-0.883v-14.234c0-0.488-0.395-0.883-0.883-0.883z"></path>
</symbol>
</svg>
