<svg xmlns="http://www.w3.org/2000/svg" xmlns:xlink="http://www.w3.org/1999/xlink">
<symbol id="icon-instagram" viewBox="0 0 16 16">
<title>instagram</title>
<path d="M8 0c-2.173 0-2.445 0.010-3.298 0.048-0.852 0.040-1.432 0.174-1.942 0.372-0.526 0.204-0.973 0.478-1.417 0.923-0.445 0.444-0.72 0.89-0.923 1.417-0.198 0.51-0.333 1.090-0.372 1.942-0.040 0.853-0.048 1.125-0.048 3.298s0.010 2.445 0.048 3.298c0.040 0.852 0.174 1.433 0.372 1.942 0.204 0.526 0.478 0.973 0.923 1.417 0.444 0.445 0.89 0.72 1.417 0.923 0.51 0.198 1.090 0.333 1.942 0.372s1.125 0.048 3.298 0.048 2.445-0.010 3.298-0.048c0.852-0.040 1.433-0.174 1.942-0.372 0.526-0.204 0.973-0.478 1.417-0.923 0.445-0.444 0.72-0.89 0.923-1.417 0.198-0.51 0.333-1.090 0.372-1.942s0.048-1.125 0.048-3.298-0.010-2.445-0.048-3.298c-0.040-0.852-0.174-1.433-0.372-1.942-0.204-0.526-0.478-0.973-0.923-1.417s-0.89-0.72-1.417-0.923c-0.51-0.198-1.090-0.333-1.942-0.372-0.853-0.040-1.125-0.048-3.298-0.048zM8 1.44c2.136 0 2.39 0.010 3.233 0.048 0.78 0.036 1.203 0.166 1.485 0.276 0.374 0.145 0.64 0.318 0.92 0.598s0.453 0.546 0.598 0.92c0.11 0.282 0.24 0.705 0.276 1.485 0.038 0.844 0.047 1.097 0.047 3.233s-0.010 2.39-0.050 3.233c-0.040 0.78-0.17 1.203-0.28 1.485-0.15 0.374-0.32 0.64-0.6 0.92s-0.55 0.453-0.92 0.598c-0.28 0.11-0.71 0.24-1.49 0.276-0.85 0.038-1.1 0.047-3.24 0.047s-2.39-0.010-3.24-0.050c-0.78-0.040-1.21-0.17-1.49-0.28-0.38-0.15-0.64-0.32-0.92-0.6s-0.46-0.55-0.6-0.92c-0.11-0.28-0.24-0.71-0.28-1.49-0.030-0.84-0.040-1.1-0.040-3.23s0.010-2.39 0.040-3.24c0.040-0.78 0.17-1.21 0.28-1.49 0.14-0.38 0.32-0.64 0.6-0.92s0.54-0.46 0.92-0.6c0.28-0.11 0.7-0.24 1.48-0.28 0.85-0.030 1.1-0.040 3.24-0.040zM8 3.892c-2.27 0-4.108 1.84-4.108 4.108 0 2.27 1.84 4.108 4.108 4.108 2.27 0 4.108-1.84 4.108-4.108 0-2.27-1.84-4.108-4.108-4.108zM8 10.667c-1.473 0-2.667-1.194-2.667-2.667s1.194-2.667 2.667-2.667c1.473 0 2.667 1.194 2.667 2.667s-1.194 2.667-2.667 2.667zM13.23 3.73c0 0.53-0.43 0.96-0.96 0.96s-0.96-0.43-0.96-0.96 0.43-0.96 0.96-0.96 0.96 0.43 0.96 0.96z"></path>
</symbol>
</svg>
