<svg xmlns="http://www.w3.org/2000/svg" xmlns:xlink="http://www.w3.org/1999/xlink">
<symbol id="icon-linkedin" viewBox="0 0 16 16">
<title>linkedin</title>
<path d="M13.632 13.635h-2.37v-3.713c0-0.886-0.018-2.025-1.234-2.025-1.235 0-1.424 0.964-1.424 1.96v3.778h-2.37v-7.635h2.276v1.040h0.030c0.318-0.6 1.092-1.233 2.247-1.233 2.4 0 2.845 1.58 2.845 3.637v4.188zM3.558 4.955c-0.762 0-1.376-0.617-1.376-1.377 0-0.758 0.614-1.375 1.376-1.375 0.76 0 1.376 0.617 1.376 1.375 0 0.76-0.617 1.377-1.376 1.377zM4.746 13.635h-2.376v-7.635h2.376v7.635zM14.816 0h-13.636c-0.652 0-1.18 0.516-1.18 1.153v13.694c0 0.637 0.528 1.153 1.18 1.153h13.635c0.652 0 1.185-0.516 1.185-1.153v-13.694c0-0.637-0.533-1.153-1.185-1.153z"></path>
</symbol>
</svg>
