<svg xmlns="http://www.w3.org/2000/svg" xmlns:xlink="http://www.w3.org/1999/xlink">
<symbol id="icon-medium" viewBox="0 0 16 16">
<title>medium</title>
<path d="M11.824 12.628l-0.276 0.45 3.542 1.77c0.15 0.076 0.294 0.11 0.418 0.11 0.278 0 0.467-0.177 0.467-0.492v-8.583l-4.15 6.745zM15.92 3.958c-0.004-0.003 0-0.010-0.003-0.012l-4.825-2.412c-0.060-0.030-0.123-0.038-0.187-0.044-0.016 0-0.030-0.010-0.047-0.010-0.184 0-0.368 0.092-0.467 0.254l-0.24 0.39-0.5 0.814-1.89 3.080 2.89 4.701 0.59 0.95 4.71-7.64c0.020-0.030 0.010-0.060-0.020-0.080zM9.65 11.003l-3.069-4.987-0.25-0.416v4.867l4.32 2.163-1-1.626zM0.737 1.68l-0.147-0.072c-0.085-0.042-0.166-0.062-0.24-0.062-0.206 0-0.35 0.16-0.35 0.427v10.162c0 0.272 0.2 0.594 0.442 0.716l4.145 2.080c0.107 0.060 0.208 0.080 0.3 0.080 0.257 0 0.438-0.2 0.438-0.53v-10.471c0-0.020-0.012-0.040-0.030-0.047l-4.557-2.283z"></path>
</symbol>
</svg>
