<svg xmlns="http://www.w3.org/2000/svg" xmlns:xlink="http://www.w3.org/1999/xlink">
<symbol id="icon-steam" viewBox="0 0 16 16">
<title>steam</title>
<path d="M7.986 0c-4.202 0-7.646 3.24-7.972 7.358l4.288 1.772c0.363-0.247 0.802-0.393 1.274-0.393 0.042 0 0.084 0.002 0.126 0.004l1.908-2.761v-0.040c0-1.663 1.352-3.016 3.016-3.016s3.017 1.354 3.017 3.018-1.354 3.017-3.017 3.017h-0.070l-2.718 1.941c0 0.034 0.003 0.070 0.003 0.106 0 1.25-1.010 2.264-2.26 2.264-1.090 0-2.010-0.782-2.22-1.818l-3.071-1.272c0.95 3.358 4.033 5.82 7.695 5.82 4.418 0 8-3.582 8-8s-3.582-8-8-8zM5.026 12.14l-0.982-0.407c0.175 0.362 0.476 0.666 0.876 0.833 0.865 0.36 1.862-0.050 2.222-0.916 0.175-0.42 0.176-0.88 0.003-1.3s-0.5-0.747-0.918-0.922c-0.416-0.173-0.86-0.166-1.252-0.020l1.015 0.42c0.638 0.267 0.94 1 0.673 1.637-0.265 0.638-0.998 0.94-1.636 0.674zM12.636 5.938c0-1.108-0.902-2.010-2.010-2.010-1.11 0-2.010 0.902-2.010 2.010 0 1.11 0.9 2.010 2.010 2.010 1.108 0 2.010-0.9 2.010-2.010zM9.12 5.935c0-0.835 0.675-1.51 1.51-1.51 0.833 0 1.51 0.675 1.51 1.51 0 0.834-0.677 1.51-1.51 1.51-0.835 0-1.51-0.676-1.51-1.51z"></path>
</symbol>
</svg>
