<svg xmlns="http://www.w3.org/2000/svg" xmlns:xlink="http://www.w3.org/1999/xlink">
<symbol id="icon-twitter" viewBox="0 0 16 16">
<title>twitter</title>
<path d="M16 3.038c-0.59 0.26-1.22 0.437-1.885 0.517 0.677-0.407 1.198-1.050 1.443-1.816-0.634 0.37-1.337 0.64-2.085 0.79-0.598-0.64-1.45-1.040-2.396-1.040-1.812 0-3.282 1.47-3.282 3.28 0 0.26 0.030 0.51 0.085 0.75-2.728-0.13-5.147-1.44-6.766-3.42-0.284 0.481-0.444 1.041-0.444 1.651 0 1.14 0.58 2.143 1.46 2.732-0.538-0.017-1.045-0.165-1.487-0.41v0.040c0 1.59 1.13 2.918 2.633 3.22-0.276 0.074-0.566 0.114-0.865 0.114-0.21 0-0.41-0.020-0.61-0.058 0.42 1.304 1.63 2.253 3.070 2.28-1.12 0.88-2.54 1.404-4.070 1.404-0.26 0-0.52-0.015-0.78-0.045 1.46 0.93 3.18 1.474 5.040 1.474 6.040 0 9.34-5 9.34-9.33 0-0.14 0-0.28-0.010-0.42 0.64-0.46 1.2-1.040 1.64-1.7z"></path>
</symbol>
</svg>
