<svg xmlns="http://www.w3.org/2000/svg" xmlns:xlink="http://www.w3.org/1999/xlink">
<symbol id="icon-youtube" viewBox="0 0 16 16">
<title>youtube</title>
<path d="M0 7.345v1.26c0 1.295 0.16 2.59 0.16 2.59s0.156 1.1 0.636 1.587c0.608 0.637 1.408 0.617 1.764 0.684 1.28 0.123 5.44 0.16 5.44 0.16s3.362-0.004 5.6-0.166c0.314-0.038 0.996-0.040 1.604-0.678 0.48-0.486 0.636-1.588 0.636-1.588s0.16-1.294 0.16-2.59v-1.258c0-1.296-0.16-2.59-0.16-2.59s-0.156-1.102-0.636-1.588c-0.608-0.638-1.29-0.64-1.604-0.678-2.238-0.162-5.6-0.166-5.6-0.166s-4.16 0.036-5.44 0.16c-0.356 0.067-1.156 0.047-1.764 0.684-0.48 0.487-0.636 1.587-0.636 1.587s-0.16 1.296-0.16 2.59zM6.348 10.075v-4.495l4.323 2.255-4.32 2.24z"></path>
</symbol>
</svg>
