<svg id="Layer_1" data-name="Layer 1" xmlns="http://www.w3.org/2000/svg" viewBox="0 0 1500 700"><defs><style>.cls-1{fill:#007aff;}</style></defs><title>Blue Full</title><path class="cls-1" d="M466.05,334.08v2.52c0,4.83-.21,9.51-.6,14.06-7,84-75.51,125.15-107.27,133.25a12.15,12.15,0,0,1-6.39,0c-20.58-5.28-56.68-24.44-81.39-60.19-.31-.45-.63-.9-.93-1.35a170.65,170.65,0,0,1,196.58-88.29Z"/><path class="cls-1" d="M412.89,321.65a257.83,257.83,0,0,0-53.5,6.66,7,7,0,0,1-2.1.21c-1.8-.09-3.63-.15-5.46-.18a1.11,1.11,0,0,1-1.11-1.11,1.15,1.15,0,0,1,.69-1,1,1,0,0,1,.42-.09,254.37,254.37,0,0,1,49.07-4.74C404.92,321.38,408.9,321.47,412.89,321.65Z"/><path class="cls-1" d="M288.88,355.78a1.15,1.15,0,0,1-.69,1,251.47,251.47,0,0,0-37.36,26.81c-1.14-3.66-2.16-7.44-3-11.31a258.54,258.54,0,0,1,25.25-16.67,2.25,2.25,0,0,1,.9-.27c4.92-.39,8.91-.6,13.64-.69h.33A1.11,1.11,0,0,1,288.88,355.78Z"/><path class="cls-1" d="M339,333.38a.82.82,0,0,1-.45.74.35.35,0,0,0-.21.07,243.47,243.47,0,0,0-31.49,12.65s-.09,0-.12.06c-2.4-.09-4.8-.12-7.2-.12-3.45,0-10.23,0-7.74-1a213.65,213.65,0,0,1,32.51-12.71s0,0,.06,0c4.56-.3,9.18-.48,13.8-.51A.86.86,0,0,1,339,333.38Z"/><path class="cls-1" d="M466,272.24l.32,54.26A309.72,309.72,0,0,0,244.2,352q-.62-7-.61-14.33l.14-65.4c0-7.43,1.55-9.31,8.34-12.33l95.26-42.62a18.77,18.77,0,0,1,15.29,0l95.27,42.45C464.66,262.76,466,264.81,466,272.24Zm-51.52,11.59a9.51,9.51,0,0,0-11-1.74L388,266.63a9.53,9.53,0,0,0-13.46,0L347.08,294.1l-13.46-13.46a9.48,9.48,0,0,0-13.46,0L271.67,329.1a307.33,307.33,0,0,1,91.65-18.76c3.84-.2,7.71-.33,11.57-.35,1.35,0,2.67,0,4,0a309.58,309.58,0,0,1,57.84,5.43q5.92,1.1,11.77,2.47Z"/><path class="cls-1" d="M569.8,445.26H527.26l31.47-181.09h42.41Z"/><path class="cls-1" d="M597.53,445.26l31.34-181.09,53.24.12q23.5,0,41,12.38T748,310.44q6.35,18.78,3.86,40.54l-.88,7.59a106.94,106.94,0,0,1-16.16,44.16,92.8,92.8,0,0,1-33,31,89.85,89.85,0,0,1-43.54,11.5Zm68.16-147.51L645.91,411.56l12.44.12q21.9,0,35.14-16.92T709.22,343l.25-4.1q.87-19.91-6.22-30.23T682,297.87Z"/><path class="cls-1" d="M875.76,368.4H809.22l-7.59,43.28h78.73l-5.84,33.58H753.25l31.34-181.09H906.11l-5.85,33.7H821.41l-6.72,38.19h66.67Z"/><path class="cls-1" d="M941.19,411.68h73.75l-5.84,33.58H892.8l31.34-181.09h42.67Z"/><path class="cls-1" d="M1068.17,445.26h-42.54l31.47-181.09h42.41Z"/><path class="cls-1" d="M1243.72,383.57a65.32,65.32,0,0,1-12.5,33.83,70.63,70.63,0,0,1-28.61,22.76,88.5,88.5,0,0,1-38.37,7.59q-28.35-.62-44.65-18.28t-17.79-47.89q-1.11-20.15,4.42-43.91t18-41.35q12.51-17.6,29.48-26.37a76.6,76.6,0,0,1,37.13-8.4q29.6.51,46.83,17.79T1256.41,327l-42.42-.13q.26-16.53-6-23.63t-19.65-7.59q-33.58-1.11-40.92,52.24-3.36,24.13-3.36,34.46-.61,30.6,22.64,31.47,15,.49,24-7.4t11.45-22.33Z"/></svg>